<?xml version="1.0" standalone="no"?><!DOCTYPE svg PUBLIC "-//W3C//DTD SVG 1.1//EN" "http://www.w3.org/Graphics/SVG/1.1/DTD/svg11.dtd"><svg t="1603372729866" class="icon" viewBox="0 0 1057 1024" version="1.1" xmlns="http://www.w3.org/2000/svg" p-id="3386" width="132.125" height="128" xmlns:xlink="http://www.w3.org/1999/xlink"><defs><style type="text/css"></style></defs><path d="M326.095238 399.238095m-45.714286 0a45.714286 45.714286 0 1 0 91.428572 0 45.714286 45.714286 0 1 0-91.428572 0Z" fill="#D7D7D7" p-id="3387"></path><path d="M734.47619 399.238095m-45.714285 0a45.714286 45.714286 0 1 0 91.428571 0 45.714286 45.714286 0 1 0-91.428571 0Z" fill="#D7D7D7" p-id="3388"></path><path d="M326.095238 542.47619m-15.238095 0a15.238095 15.238095 0 1 0 30.47619 0 15.238095 15.238095 0 1 0-30.47619 0Z" fill="#D7D7D7" p-id="3389"></path><path d="M734.47619 542.47619m-15.238095 0a15.238095 15.238095 0 1 0 30.476191 0 15.238095 15.238095 0 1 0-30.476191 0Z" fill="#D7D7D7" p-id="3390"></path><path d="M208.457143 901.485714l14.323809 1.828572c-0.914286 2.133333-1.828571 4.266667-3.047619 6.095238h39.009524v10.666666c-3.657143 7.314286-9.447619 13.409524-17.066667 19.2 9.447619 3.961905 19.504762 7.314286 31.085715 9.752381l-8.228572 11.885715c-14.019048-3.657143-25.904762-8.228571-36.266666-13.714286-11.580952 5.790476-25.295238 10.666667-42.057143 14.019048l-6.704762-12.495238c14.32381-2.438095 26.209524-5.485714 36.266667-9.142858-4.266667-3.047619-8.228571-6.4-11.580953-9.752381-3.961905 3.657143-8.533333 7.009524-13.409524 10.057143l-8.533333-11.580952c12.8-7.619048 21.638095-16.457143 26.209524-26.819048z m20.419047 31.390476c5.790476-3.657143 10.361905-7.92381 14.019048-12.190476h-30.47619l-0.304762 0.304762c4.87619 4.266667 10.361905 8.533333 16.761904 11.885714z m-29.257142 41.142858c20.114286 3.352381 39.009524 8.533333 57.6 14.933333l-5.180953 12.8c-18.895238-6.704762-38.4-12.190476-58.514285-15.847619l6.095238-11.885714z m15.238095-20.419048c12.495238 3.352381 23.771429 7.619048 33.828571 12.495238l-7.314285 11.276191c-10.971429-5.790476-21.942857-10.361905-33.52381-13.409524l7.009524-10.361905z m74.971428-67.961905v135.92381H274.285714v-5.180953H176.761905v5.180953h-15.542857v-135.92381h128.609523zM176.761905 1002.666667h97.523809v-102.704762H176.761905V1002.666667z m174.628571-68.876191v7.619048c0 4.87619-0.304762 9.447619-0.609524 14.019047h70.095238v66.742858h-15.847619v-51.504762h-55.771428c-3.657143 21.942857-11.885714 39.009524-24.076191 51.2l-12.190476-10.666667c14.933333-14.628571 22.552381-37.790476 22.857143-69.485714v-56.380953h15.847619v33.52381h39.92381V880.761905h15.542857v37.790476h31.085714v15.238095h-86.857143z m243.2-32v117.638095H579.047619v-9.447619h-21.942857v9.447619h-15.238095v-117.638095h52.723809z m-37.790476 92.952381h21.942857v-78.019047h-21.942857v78.019047zM484.571429 880.761905h15.847619v29.257143h30.171428c0 50.590476-0.609524 81.980952-2.438095 93.866666-1.52381 10.971429-9.142857 16.761905-22.552381 16.761905-2.438095 0-6.4-0.304762-11.885714-0.914286l-3.961905-14.628571c5.180952 0.609524 9.447619 0.914286 13.409524 0.914286 5.790476 0 9.447619-3.352381 10.361905-9.752381 0.609524-6.704762 1.219048-30.47619 1.523809-70.704762h-14.933333c-0.914286 44.190476-10.971429 76.495238-29.866667 97.219047l-11.885714-10.666666c16.457143-18.285714 25.295238-46.933333 26.209524-86.552381h-22.552381v-15.542857h22.552381V880.761905z m138.361904 10.666666h28.038096v-11.27619h15.542857v11.27619h25.904762v14.32381h-25.904762v9.752381h31.695238c-0.609524-10.971429-0.914286-22.857143-0.914286-35.352381h15.542857c0 13.104762 0.304762 24.990476 0.914286 35.352381h36.571429v14.628571h-35.961905c0.609524 12.190476 2.133333 22.247619 3.657143 29.866667l1.219047 6.095238c4.266667-9.447619 7.314286-19.809524 10.361905-31.390476l14.019048 6.4c-4.87619 18.590476-10.971429 33.828571-17.980953 46.628571 0.914286 2.438095 1.828571 4.266667 2.742857 5.790477 3.352381 6.704762 6.095238 10.361905 7.92381 10.361904 1.219048 0 2.742857-7.009524 4.266667-21.333333l13.409523 7.314286c-3.657143 20.114286-8.838095 30.47619-15.847619 30.47619-5.790476 0-11.885714-4.571429-18.285714-13.714286-1.219048-1.828571-2.438095-3.657143-3.352381-5.790476-7.314286 9.142857-15.847619 16.152381-24.990476 21.333334L682.666667 1008.761905c10.361905-5.790476 19.504762-14.019048 26.819047-24.990476-2.133333-6.095238-3.961905-12.8-5.485714-20.419048-2.133333-9.447619-3.657143-20.72381-4.87619-33.52381h-84.114286v-14.628571h35.961905v-9.752381h-28.038096v-14.019048z m105.142857-10.057142c7.619048 8.533333 13.714286 15.847619 17.676191 22.247619l-11.580952 8.228571c-4.571429-6.704762-10.361905-14.628571-17.980953-22.857143l11.885714-7.619047z m-35.961904 106.361904v13.714286c-7.009524 0.914286-14.32381 1.828571-21.942857 2.742857v16.761905h-15.542858v-15.238095c-10.361905 0.914286-21.028571 1.828571-32.304761 2.742857l-1.828572-14.628572c11.885714-0.609524 23.466667-1.219048 34.133333-2.438095V981.333333h-27.733333l-3.352381-12.495238c3.352381-4.266667 6.704762-9.142857 9.752381-15.238095h-14.019048v-14.019048h20.114286c1.219048-3.047619 2.438095-6.4 3.352381-9.447619l14.933333 3.047619c-0.914286 2.438095-1.52381 4.571429-2.438095 6.704762h37.180953v14.019048H649.142857c-2.438095 5.180952-5.485714 10.057143-7.923809 14.628571h12.8v-9.142857h15.542857v9.142857h21.333333v13.409524h-21.333333v8.838095c8.228571-1.219048 15.847619-1.828571 22.552381-3.047619z m134.704762-107.885714h16.457142v25.904762h54.24762v74.361905h-15.84762v-8.533334h-38.095238v50.895238h-16.457142v-50.895238H789.333333v8.533334h-15.847619v-74.361905h53.942857v-25.904762z m-37.790477 76.495238h37.790477v-34.742857h-37.790477v34.742857z m54.247619 0h38.095239v-34.742857h-38.095239v34.742857z" fill="#D7D7D7" p-id="3391"></path></svg>