<?xml version="1.0" standalone="no"?><!DOCTYPE svg PUBLIC "-//W3C//DTD SVG 1.1//EN" "http://www.w3.org/Graphics/SVG/1.1/DTD/svg11.dtd"><svg class="icon" width="32px" height="30.37px" viewBox="0 0 1079 1024" version="1.1" xmlns="http://www.w3.org/2000/svg"><path d="M 561.57 604.297 c 134.127 0 243.251 -109.261 243.251 -243.567 S 695.689 117.163 561.57 117.163 c -134.135 0 -243.26 109.269 -243.26 243.567 s 109.124 243.567 243.26 243.567 Z m 0 -444.467 c 110.601 0 200.585 90.1291 200.585 200.9 s -89.984 200.9 -200.585 200.9 c -110.609 0 -200.593 -90.1291 -200.593 -200.9 s 89.984 -200.9 200.593 -200.9 Z" fill="#d81e06" /><path d="M 923.401 740.446 c -8.82347 -52.6763 -137.89 -154.163 -177.775 -183.979 c -5.99893 -4.48 -24.32 -8.64427 -32.8021 -0.9728 c -11.7504 10.624 -71.5008 63.5221 -152.004 63.5221 c -50.5515 0 -100.864 -19.84 -147.729 -61.2352 c -7.424 -6.5536 -20.8128 -13.5851 -36.5568 -0.110933 c -27.904 23.8848 -135.646 116.523 -167.125 170.769 c -25.7621 44.416 -16.5291 104.243 -0.7936 141.969 c 14.0459 33.6896 35.1232 56.4053 57.8048 62.3189 c 10.1376 2.6624 38.7072 5.69173 170.761 5.69173 c 165.845 0 397.508 -5.03467 399.821 -5.08587 l 1.97973 -0.1536 c 1.46773 -0.187733 36.2155 -5.07733 62.0117 -39.8763 c 26.0096 -35.0635 33.536 -86.5024 22.4085 -152.858 Z m -51.5072 130.082 c -14.7371 20.4117 -33.3056 25.1136 -37.0176 25.8816 c -19.1659 0.4096 -238.797 5.05173 -397.687 5.05173 c -130.193 0 -156.254 -3.14027 -161.417 -4.48 c -8.2944 -2.15893 -21.9221 -14.1312 -33.0325 -40.7893 c -13.4741 -32.2816 -19.1061 -78.5749 -1.3568 -109.193 c 26.4875 -45.6533 120.09 -127.804 153.421 -156.297 c 52.7104 43.3323 108.484 65.28 166.016 65.28 c 81.6299 0 143.351 -44.1771 168.414 -65.5445 c 66.4064 50.8331 152.9 127.411 157.696 156.1 c 9.1904 54.7243 3.98507 97.6128 -15.0357 123.989 Z" fill="#d81e06" /></svg>