<?xml version="1.0" standalone="no"?><!DOCTYPE svg PUBLIC "-//W3C//DTD SVG 1.1//EN" "http://www.w3.org/Graphics/SVG/1.1/DTD/svg11.dtd"><svg class="icon" width="32px" height="32.00px" viewBox="0 0 1024 1024" version="1.1" xmlns="http://www.w3.org/2000/svg"><path d="M446.933333 752c-77.866667 0-114.133333-56.533333-121.6-87.466667 0 0-37.333333-151.466667-78.933333-315.733333l-3.2-13.866667v-1.066666l-11.733333-44.8c-14.933333-57.6-38.4-96-70.4-113.066667-34.133333-18.133333-67.2-6.4-68.266667-6.4-13.866667 5.333333-28.8-2.133333-34.133333-16s2.133333-28.8 16-34.133333c2.133333-1.066667 55.466667-20.266667 110.933333 8.533333 46.933333 24.533333 80 73.6 98.133333 147.2l10.666667 41.6c24.533333 41.6 76.8 38.4 78.933333 38.4h1.066667c16 0 391.466667-7.466667 466.133333-3.2 58.666667 3.2 78.933333 42.666667 78.933334 69.333333v4.266667l-2.133334 4.266667c-3.2 8.533333-72.533333 220.8-88.533333 257.066666-22.4 54.4-89.6 59.733333-92.8 59.733334h-2.133333c-2.133333 0-183.466667 2.133333-283.733334 4.266666-1.066667 1.066667-2.133333 1.066667-3.2 1.066667z m-132.266666-352c34.133333 137.6 61.866667 251.733333 61.866666 251.733333 1.066667 4.266667 14.933333 46.933333 69.333334 46.933334h3.2c96-2.133333 267.733333-4.266667 283.733333-4.266667 4.266667 0 37.333333-5.333333 48-27.733333 11.733333-26.666667 59.733333-169.6 84.266667-246.4-1.066667-4.266667-7.466667-11.733333-27.733334-12.8-70.4-4.266667-443.733333 3.2-460.8 3.2-6.4 0-33.066667 1.066667-61.866666-10.666667z" fill="#d81e06" /><path d="M638.933333 544H525.866667c-21.333333 0-39.466667-18.133333-39.466667-39.466667s18.133333-39.466667 39.466667-39.466666h112c21.333333 0 39.466667 18.133333 39.466666 39.466666 1.066667 21.333333-17.066667 39.466667-38.4 39.466667z m-113.066666-46.933333c-4.266667 0-7.466667 3.2-7.466667 7.466666 0 4.266667 3.2 7.466667 7.466667 7.466667h112c4.266667 0 7.466667-3.2 7.466666-7.466667 0-4.266667-3.2-7.466667-7.466666-7.466666H525.866667zM718.933333 635.733333H445.866667c-21.333333 0-39.466667-18.133333-39.466667-39.466666s18.133333-39.466667 39.466667-39.466667h273.066666c21.333333 0 39.466667 18.133333 39.466667 39.466667s-17.066667 39.466667-39.466667 39.466666z m-273.066666-46.933333c-4.266667 0-7.466667 3.2-7.466667 7.466667 0 4.266667 3.2 7.466667 7.466667 7.466666h273.066666c4.266667 0 7.466667-3.2 7.466667-7.466666 0-4.266667-3.2-7.466667-7.466667-7.466667H445.866667zM449.066667 942.933333c-45.866667 0-82.133333-38.4-82.133334-85.333333s37.333333-85.333333 82.133334-85.333333 82.133333 38.4 82.133333 85.333333c1.066667 46.933333-36.266667 85.333333-82.133333 85.333333z m0-137.6c-27.733333 0-50.133333 23.466667-50.133334 53.333334 0 28.8 22.4 53.333333 50.133334 53.333333s50.133333-23.466667 50.133333-53.333333c1.066667-29.866667-22.4-53.333333-50.133333-53.333334zM728.533333 942.933333c-45.866667 0-82.133333-38.4-82.133333-85.333333s37.333333-85.333333 82.133333-85.333333 82.133333 38.4 82.133334 85.333333-36.266667 85.333333-82.133334 85.333333z m0-137.6c-27.733333 0-50.133333 23.466667-50.133333 53.333334 0 28.8 22.4 53.333333 50.133333 53.333333s50.133333-23.466667 50.133334-53.333333-22.4-53.333333-50.133334-53.333334z" fill="#d81e06" /></svg>