<?xml version="1.0" standalone="no"?><!DOCTYPE svg PUBLIC "-//W3C//DTD SVG 1.1//EN" "http://www.w3.org/Graphics/SVG/1.1/DTD/svg11.dtd"><svg class="icon" width="32px" height="32.00px" viewBox="0 0 1024 1024" version="1.1" xmlns="http://www.w3.org/2000/svg"><path d="M1000.6 460.9L530.4 99.5c-11-8.1-25.9-8.1-36.9 0L23.4 460.9c-14 10.2-17.1 29.9-6.9 44 10.2 14.1 29.7 17.1 43.8 7l61.9-47.7V899c0 17.4 14 31.5 31.3 31.5h253.1c17.3 0 31.3-14.1 31.3-31.5V603H586v296c0 17.4 14 31.5 31.3 31.5h253.1c17.3 0 31.3-14.1 31.3-31.5V464.3l61.9 47.7c5.6 4.1 12 6 18.4 6 9.7 0 19.3-4.5 25.4-13 10.3-14.1 7.2-33.8-6.8-44.1zM839.1 867.5H648.7v-296c0-17.4-14-31.5-31.3-31.5H406.6c-17.3 0-31.3 14.1-31.3 31.5v296H184.9V416L512 164l327.1 252v451.5z" fill="#d81e06" /><path d="M694.8 421.4H329.2c-16.9 0-24.5-21.3-11.4-32L488 251c13.7-11.1 33.2-11.1 46.9-0.1l171.3 138.5c13.2 10.6 5.6 32-11.4 32z" fill="#d81e06" /></svg>