<?xml version="1.0" standalone="no"?><!DOCTYPE svg PUBLIC "-//W3C//DTD SVG 1.1//EN" "http://www.w3.org/Graphics/SVG/1.1/DTD/svg11.dtd"><svg t="1603453103816" class="icon" viewBox="0 0 1024 1024" version="1.1" xmlns="http://www.w3.org/2000/svg" p-id="7310" width="32" height="32" xmlns:xlink="http://www.w3.org/1999/xlink"><defs><style type="text/css"></style></defs><path d="M512 512m-469.333333 0a469.333333 469.333333 0 1 0 938.666666 0 469.333333 469.333333 0 1 0-938.666666 0Z" fill="#C0ECCE" p-id="7311"></path><path d="M249.6 486.4c2.133333 0 2.133333 0 0 0v4.266667c0 57.6 49.066667 110.933333 108.8 110.933333h243.2c74.666667 0 134.4-64 134.4-136.533333 0-29.866667-10.666667-59.733333-27.733333-83.2-23.466667-14.933333-51.2-25.6-81.066667-25.6h-6.4c-19.2-61.866667-76.8-106.666667-142.933333-106.666667-83.2 0-149.333333 68.266667-149.333334 151.466667 0 6.4 0 12.8 2.133334 19.2-36.266667 10.666667-64 34.133333-81.066667 66.133333" fill="#FFFFFF" p-id="7312"></path><path d="M475.733333 234.666667c-91.733333 0-164.266667 74.666667-164.266666 168.533333v8.533333c-53.333333 19.2-89.6 72.533333-89.6 132.266667 0 76.8 61.866667 140.8 134.4 140.8h23.466666c8.533333 0 14.933333-6.4 14.933334-14.933333s-6.4-14.933333-14.933334-14.933334h-23.466666c-57.6 0-104.533333-51.2-104.533334-108.8 0-49.066667 34.133333-96 78.933334-106.666666 6.4-2.133333 12.8-8.533333 10.666666-17.066667 0-6.4-2.133333-12.8-2.133333-17.066667 0-76.8 59.733333-136.533333 134.4-136.533333 59.733333 0 110.933333 38.4 128 96 2.133333 6.4 8.533333 10.666667 14.933333 10.666667H622.933333c74.666667 0 134.4 64 134.4 140.8 0 74.666667-57.6 136.533333-130.133333 140.8-8.533333 0-14.933333 6.4-14.933333 14.933333s6.4 14.933333 14.933333 14.933333c87.466667-4.266667 157.866667-81.066667 157.866667-170.666666 0-91.733333-72.533333-168.533333-162.133334-170.666667-19.2-68.266667-78.933333-110.933333-147.2-110.933333z" fill="#31BD61" p-id="7313"></path><path d="M520.533333 729.6V490.666667c0-8.533333-6.4-14.933333-14.933333-14.933334s-14.933333 6.4-14.933333 14.933334v238.933333c0 8.533333 6.4 14.933333 14.933333 14.933333s14.933333-4.266667 14.933333-14.933333z" fill="#31BD61" p-id="7314"></path><path d="M516.266667 757.333333l78.933333-78.933333c6.4-6.4 6.4-17.066667 0-23.466667-6.4-6.4-17.066667-6.4-23.466667 0l-78.933333 78.933334c-6.4 6.4-6.4 17.066667 0 23.466666 6.4 6.4 17.066667 6.4 23.466667 0z" fill="#31BD61" p-id="7315"></path><path d="M514.133333 733.866667l-78.933333-78.933334c-6.4-6.4-17.066667-6.4-23.466667 0-6.4 6.4-6.4 17.066667 0 23.466667l78.933334 78.933333c6.4 6.4 17.066667 6.4 23.466666 0 6.4-6.4 6.4-17.066667 0-23.466666z" fill="#31BD61" p-id="7316"></path></svg>