<?xml version="1.0" standalone="no"?><!DOCTYPE svg PUBLIC "-//W3C//DTD SVG 1.1//EN" "http://www.w3.org/Graphics/SVG/1.1/DTD/svg11.dtd"><svg t="1603452895897" class="icon" viewBox="0 0 1024 1024" version="1.1" xmlns="http://www.w3.org/2000/svg" p-id="3169" width="16" height="16" xmlns:xlink="http://www.w3.org/1999/xlink"><defs><style type="text/css"></style></defs><path d="M41.7 903.9c-4.3 0-8.6-0.7-12.9-2C11.6 896.3 0 880.4 0 862.3v-623C0 173.5 53.5 120 119.3 120h785.4c65.8 0 119.3 53.5 119.3 119.3v431.2c0 65.8-53.5 119.3-119.3 119.3h-726c-21 0-40.8 10.1-53.1 27.1l-50.3 69.7c-7.9 11.1-20.5 17.3-33.6 17.3z m77.6-735.3c-39 0-70.7 31.7-70.7 70.7v601.5l37.8-52.4c21.4-29.6 55.9-47.3 92.4-47.3h726c39 0 70.7-31.7 70.7-70.7V239.3c0-39-31.7-70.7-70.7-70.7H119.3z" fill="#d81e06" p-id="3170"></path><path d="M282.5 516.6c-40.7 0-73.8-33.1-73.8-73.8s33.1-73.8 73.8-73.8 73.8 33.1 73.8 73.8-33.1 73.8-73.8 73.8z m0-113.7c-22 0-39.9 17.9-39.9 39.9s17.9 39.9 39.9 39.9 39.9-17.9 39.9-39.9-17.9-39.9-39.9-39.9zM521.7 516.6c-40.7 0-73.8-33.1-73.8-73.8S481 369 521.7 369s73.8 33.1 73.8 73.8-33.1 73.8-73.8 73.8z m0-113.7c-22 0-39.9 17.9-39.9 39.9s17.9 39.9 39.9 39.9 39.9-17.9 39.9-39.9-17.9-39.9-39.9-39.9zM760.9 516.6c-40.7 0-73.8-33.1-73.8-73.8s33.1-73.8 73.8-73.8 73.8 33.1 73.8 73.8-33.1 73.8-73.8 73.8z m0-113.7c-22 0-39.9 17.9-39.9 39.9s17.9 39.9 39.9 39.9 39.9-17.9 39.9-39.9-17.9-39.9-39.9-39.9z" fill="#d81e06" p-id="3171"></path></svg>