<?xml version="1.0" standalone="no"?><!DOCTYPE svg PUBLIC "-//W3C//DTD SVG 1.1//EN" "http://www.w3.org/Graphics/SVG/1.1/DTD/svg11.dtd"><svg t="1603452957914" class="icon" viewBox="0 0 1339 1024" version="1.1" xmlns="http://www.w3.org/2000/svg" p-id="4379" xmlns:xlink="http://www.w3.org/1999/xlink" width="20.921875" height="16"><defs><style type="text/css"></style></defs><path d="M1007.472764 511.311365H235.857431c-29.955615 0-54.402152-23.757902-54.402152-53.3692V319.870881c0-29.26698 24.446537-53.3692 54.402152-53.3692h771.615333c29.955615 0 54.402152 23.757902 54.402152 53.3692v138.415602c0 29.26698-24.446537 53.024882-54.402152 53.024882zM248.252858 458.975118H995.077337c7.230666 0 13.428379-5.853396 13.428379-13.084062V331.921991c0-7.230666-5.853396-13.084062-13.428379-13.084062H248.252858c-7.230666 0-13.428379 5.853396-13.428379 13.084062v113.969065c0 7.230666 6.197714 13.084062 13.428379 13.084062z" fill="#333333" p-id="4380"></path><path d="M968.564896 953.070612H297.834566c-29.611298 0-53.3692-23.413584-53.369199-52.336248V460.352387h778.157363v440.03766c-0.344317 29.26698-24.446537 52.680565-54.057834 52.680565zM311.262946 900.734364h643.529253c7.574983 0 13.772697-5.853396 13.772697-13.428379V526.117014a13.772697 13.772697 0 0 0-13.772697-13.428379H311.262946c-7.574983 0-13.772697 5.853396-13.772697 13.428379v360.844654c0.344317 7.574983 6.197714 13.772697 13.772697 13.772696z" fill="#333333" p-id="4381"></path><path d="M589.471419 316.772024h53.3692v155.631473h-53.3692zM589.471419 513.032952h53.3692v389.423h-53.3692zM670.386012 300.244788l-59.566913-60.599865-36.841964-37.530599-98.474781-100.196368c-36.153329-37.874916-97.097512-39.94082-136.00538-4.820444C320.559516 114.6577 309.885676 137.726967 308.852724 162.862139c-1.032952 25.135171 8.263618 49.237391 25.823806 67.486213l84.702085 85.735037h75.061197l-16.182919-16.527236-103.98386-105.016812a40.973773 40.973773 0 0 1-11.362475-29.955615c0.688635-11.362475 5.509079-21.34768 13.772697-28.922663 8.263618-7.574983 18.593141-11.362475 29.26698-11.362475 11.362475 0 23.069267 4.476126 31.332885 13.428379l100.885004 101.917956 36.841963 37.186281 38.907869 39.596503h73.33961l-16.871554-16.182919z" fill="#333333" p-id="4382"></path><path d="M892.470746 100.196369a97.992737 97.992737 0 0 0-136.349697 4.820443l-95.720242 97.44183-36.497646 37.530598-59.222596 59.911231-16.182919 16.527236h73.683928l38.907868-39.596503 36.497646-37.186281 98.130464-99.163417c16.182919-16.871553 43.383995-17.904506 60.599866-2.065904 8.263618 7.574983 13.084062 17.904506 13.772696 28.922663 0.344317 11.362475-3.787492 22.036315-11.362474 29.955615L757.498319 299.900471l-16.182919 16.182918h75.061197l81.603228-82.980497c17.560188-18.593141 26.856759-42.351042 25.823806-67.830532-1.37727-24.790854-12.05111-48.204438-31.332885-65.075991z" fill="#333333" p-id="4383"></path></svg>