<?xml version="1.0" standalone="no"?><!DOCTYPE svg PUBLIC "-//W3C//DTD SVG 1.1//EN" "http://www.w3.org/Graphics/SVG/1.1/DTD/svg11.dtd"><svg t="1603453034040" class="icon" viewBox="0 0 1024 1024" version="1.1" xmlns="http://www.w3.org/2000/svg" p-id="6191" width="16" height="16" xmlns:xlink="http://www.w3.org/1999/xlink"><defs><style type="text/css"></style></defs><path d="M511.969684 511.969684m-511.969684 0a511.969684 511.969684 0 1 0 1023.939369 0 511.969684 511.969684 0 1 0-1023.939369 0Z" fill="#F29B94" p-id="6192"></path><path d="M395.982237 669.065072a52.264077 52.264077 0 0 1 36.378708 14.672746 46.928533 46.928533 0 0 1 11.095506 16.370418 53.052283 53.052283 0 0 1 0 39.834685 46.686009 46.686009 0 0 1-11.095506 16.309788 57.478359 57.478359 0 0 1-16.552312 11.095506 48.504944 48.504944 0 0 1-19.947658 4.12292 47.716739 47.716739 0 0 1-20.190183-4.12292 58.266564 58.266564 0 0 1-16.370419-11.095506 46.564746 46.564746 0 0 1-11.034875-16.309788 53.052283 53.052283 0 0 1 0-39.834685 46.74664 46.74664 0 0 1 11.034875-16.370418 53.719226 53.719226 0 0 1 16.370419-10.792351 51.657765 51.657765 0 0 1 20.311445-3.880395z m230.398484 1.151992a53.173545 53.173545 0 0 1 20.190183 3.880396 48.019895 48.019895 0 0 1 16.612943 10.79235 53.96175 53.96175 0 0 1 11.095506 16.309787 50.141986 50.141986 0 0 1 0 39.834686 53.476701 53.476701 0 0 1-11.095506 16.370418 51.35461 51.35461 0 0 1-16.612943 11.034875 50.202617 50.202617 0 0 1-20.190183 4.183551 48.504944 48.504944 0 0 1-19.947658-4.183551 52.688495 52.688495 0 0 1-16.309787-11.034875 53.476701 53.476701 0 0 1-11.095506-16.370418 50.141986 50.141986 0 0 1 0-39.834686 53.96175 53.96175 0 0 1 11.095506-16.309787 49.111256 49.111256 0 0 1 16.309787-10.79235 51.536503 51.536503 0 0 1 19.826396-3.880396z m93.00823-314.433299a57.114572 57.114572 0 0 1 24.252472 4.12292 27.829712 27.829712 0 0 1 12.126236 10.246669 23.10048 23.10048 0 0 1 3.274084 13.035704 43.957606 43.957606 0 0 1-1.879566 12.126236l-6.972586 20.493339c-3.455977 10.307301-7.457635 21.705962-12.126236 34.074723s-8.73089 24.616259-12.975073 36.803126-7.518266 21.766594-9.700988 28.73918a62.510747 62.510747 0 0 1-18.189355 30.740008 43.1694 43.1694 0 0 1-27.162768 8.609628H379.1874l8.306472 49.778198h278.903428q26.677719 0 26.617088 22.736693a34.195986 34.195986 0 0 1-5.274913 19.098822q-5.274913 8.003316-20.735863 8.003315h-289.817041a32.558944 32.558944 0 0 1-18.553141-4.971756 42.805613 42.805613 0 0 1-12.490023-13.035704 77.122861 77.122861 0 0 1-8.003316-17.401149 165.644384 165.644384 0 0 1-4.729232-17.704304c-0.363787-2.243354-1.394517-7.578898-3.031559-16.067263s-3.698502-19.098822-6.063118-31.83137-5.093019-26.980875-8.063947-42.441826-6.063118-31.467582-8.852152-47.352951q-10.428563-55.901948-23.767423-124.536444h-41.532358a22.554799 22.554799 0 0 1-13.823909-4.12292 36.863757 36.863757 0 0 1-9.155308-10.004145 37.409438 37.409438 0 0 1-4.971757-12.429392 61.116229 61.116229 0 0 1-1.394517-12.126236 24.252472 24.252472 0 0 1 7.457635-18.189354 27.890343 27.890343 0 0 1 20.190183-7.578898h55.962579a39.531529 39.531529 0 0 1 17.704305 3.334715 29.163598 29.163598 0 0 1 10.549825 8.124579 30.679377 30.679377 0 0 1 5.517437 10.489194c1.151992 3.698502 2.06146 6.851323 2.789035 9.397833s1.455148 7.154479 2.243353 12.490023 1.455148 10.79235 2.182723 16.309787c1.091361 6.66943 2.243354 13.642016 3.334715 21.03902z" fill="#FFFFFF" p-id="6193"></path></svg>