<?xml version="1.0" standalone="no"?><!DOCTYPE svg PUBLIC "-//W3C//DTD SVG 1.1//EN" "http://www.w3.org/Graphics/SVG/1.1/DTD/svg11.dtd"><svg t="1603452993822" class="icon" viewBox="0 0 1024 1024" version="1.1" xmlns="http://www.w3.org/2000/svg" p-id="5250" width="16" height="16" xmlns:xlink="http://www.w3.org/1999/xlink"><defs><style type="text/css"></style></defs><path d="M876.28571386 919.14285693H147.71428614c-47.14285693 0-85.71428614-38.57142832-85.71428614-85.71428525V404.85714278c0-47.14285693 38.57142832-85.71428614 85.71428614-85.71428526h728.57142772c47.14285693 0 85.71428614 38.57142832 85.71428614 85.71428525v428.57142891c0 47.14285693-38.57142832 85.71428614-85.71428614 85.71428525z" fill="#f3383e" p-id="5251"></path><path d="M844.14285722 469.14285693h-664.28571445c-17.14285722 0-32.14285752-15.00000029-32.14285664-32.14285664S162.71428555 404.85714278 179.85714278 404.85714278h664.28571445c17.14285722 0 32.14285752 15.00000029 32.14285664 32.14285751s-15.00000029 32.14285752-32.14285664 32.14285664z" fill="#FFFFFF" p-id="5252"></path><path d="M844.14285722 833.42857168h-107.14285722c-17.14285722 0-32.14285752-15.00000029-32.14285752-32.14285752s15.00000029-32.14285752 32.14285752-32.14285664h107.14285722c17.14285722 0 32.14285752 15.00000029 32.14285665 32.14285664s-15.00000029 32.14285752-32.14285664 32.14285752zM629.85714278 833.42857168h-107.14285723c-17.14285722 0-32.14285752-15.00000029-32.14285664-32.14285752s15.00000029-32.14285752 32.14285664-32.14285664h107.14285722c17.14285722 0 32.14285752 15.00000029 32.14285752 32.14285664s-15.00000029 32.14285752-32.14285751 32.14285752z" fill="#ffffff" p-id="5253"></path><path d="M364.14285752 113.42857168c-42.85714307-19.28571416-94.28571386-2.14285693-113.5714289 40.71428525L173.42857109 319.14285752h632.14285782L364.14285752 113.42857168z" fill="#ff9602" p-id="5254"></path></svg>